<?xml version="1.0" encoding="UTF-8"?>
<svg id="Layer_1" xmlns="http://www.w3.org/2000/svg" version="1.1" viewBox="0 0 612 302.67">
  <!-- Generator: Adobe Illustrator 29.3.1, SVG Export Plug-In . SVG Version: 2.1.0 Build 151)  -->
  <defs>
    <style>
      .st0 {
        fill: #387dbf;
      }

      .st1 {
        fill: #a7a5a5;
      }

      .st2 {
        stroke-width: 2px;
      }

      .st2, .st3 {
        fill: none;
        stroke: #191944;
        stroke-miterlimit: 10;
      }

      .st4 {
        fill: #191944;
      }
    </style>
  </defs>
  <g>
    <path class="st4" d="M322.31,115.91l30.91-46.69c2.1-3.17,4.74-5.96,7.8-8.22l10.86-8.04c2.19-1.62,4.58-2.97,7.11-4l26.2-10.69c2.29-.94,4.92.08,5.98,2.32l18.09,38.19-5.37,2.34-16.28-30.18c-1.2-1.94-3.64-2.71-5.74-1.8l-13.81,6.52c-2.74,1.2-3.98,4.06-2.55,6.69l12.91,24.63-25.1,9.95-10.49-13.93c-1.49-2.12-4.61-2.16-6.15-.09l-24.61,33-9.74,4.93v-4.93Z"/>
    <path class="st4" d="M377.99,103.88l1.57,4.77c.93,3.6-.11,7.43-2.74,10.06l-22.42,22.42c-3.3,3.3-3.85,8.46-1.32,12.38l24.07,37.32h-9.59c-1.47,0-2.66,1.19-2.66,2.66h0c0,1.47,1.19,2.66,2.66,2.66h20.65c1.4,0,2.27-1.51,1.57-2.72l-23.18-40.13c-1.69-2.92-.96-6.64,1.71-8.71l24.03-18.63c1.56-1.21,3.84-.81,4.88.87l36.76,59.01h-11.9c-1.27,0-2.31,1.03-2.31,2.31h0c.09,2.36,1.17,3.1,2.45,3.1h22.47c1.39,0,2.26-1.5,1.58-2.71-5.65-9.91-25.14-44.97-33.59-71.25,0,0-4.92-15.65-12.2-22.01l-22.49,8.58Z"/>
    <path class="st3" d="M275.28,152.46l-9.19-24.68c-.59-1.58.46-3.3,2.13-3.5l23.67-2.85c1.2-.14,2.34.55,2.76,1.68l5.29,14.2c.42,1.13.01,2.4-.99,3.07l-19.77,13.33c-1.4.94-3.31.33-3.9-1.25Z"/>
    <line class="st2" x1="300.7" y1="128.87" x2="482.06" y2="59.24"/>
    <path class="st4" d="M278.91,145.26l-5.36-14.4c-.34-.92.27-1.92,1.24-2.04l13.81-1.66c.7-.08,1.36.32,1.61.98l3.09,8.28c.25.66,0,1.4-.58,1.79l-11.53,7.78c-.82.55-1.93.19-2.28-.73Z"/>
    <path class="st0" d="M461.68,71.38l-31.8,12.21c16.79,8.88,28.26,26.53,28.26,46.81,0,16.04-7.18,30.42-18.49,40.14,3.91,7.39,7.24,13.32,9.1,16.6.84,1.47.83,3.22-.02,4.68-.85,1.46-2.36,2.33-4.05,2.33h-22.47c-2.35,0-5.16-1.54-5.32-5.87,0-2.97,2.32-5.29,5.18-5.29h6.71l-2.52-4.04c-6.46,2.81-13.58,4.38-21.06,4.38s-14.04-1.45-20.3-4.05l7.35,12.73c.83,1.45.84,3.24,0,4.69-.83,1.45-2.39,2.35-4.06,2.35h-20.65c-3.06,0-5.54-2.49-5.54-5.54s2.49-5.54,5.54-5.54h4.31l-21.21-32.88c-3.24-5.03-2.53-11.75,1.7-15.98l.56-.56c-.41-2.65-.63-5.37-.63-8.14,0-6.42,1.15-12.57,3.25-18.27l-31.78,12.2c-.15,2-.25,4.02-.25,6.06,0,45.12,36.58,81.7,81.7,81.7s81.7-36.58,81.7-81.7c0-23.21-9.69-44.14-25.24-59.02Z"/>
    <path class="st0" d="M216.3,156.46s18.8-11.18,41.58-2.3c22.4,8.73,44.13-3.03,44.13-3.03,0,0-11.72,21.06-42.86,9.6-29.58-10.89-42.86-4.27-42.86-4.27Z"/>
    <path class="st1" d="M292.24,115.66c3.47,0,6.62,2.19,7.84,5.45,0,0,1.72,1.51,1.54-.27-4.13-41.25-38.93-73.45-81.26-73.45-45.12,0-81.7,36.58-81.7,81.7,0,10.96,2.17,21.42,6.09,30.97,6.5-2.69,15.94-5.72,28.18-7.51-3.51-7.08-5.5-15.04-5.5-23.46,0-29.18,23.74-52.92,52.93-52.92,25.39,0,46.65,17.97,51.75,41.86l19.13-2.3c.34-.04.67-.06,1-.06Z"/>
    <path class="st0" d="M291.56,170.36c-3.3,1.49-7.84,3.15-14.07,4.8-13.87,3.68-25.12,2.24-30.69,1.02-2.43-.53-3.79-1.02-3.79-1.02,0,0-34.86-16.63-62.45-14.37-1.13.09-2.2.22-3.29.34-12.99,1.42-22.79,4.54-29.27,7.28-6.19,2.62-9.39,4.86-9.39,4.86,7.65-1.93,11.41-.23,12.37.33,14.43,23.11,40.08,38.49,69.33,38.49,23.49,0,44.65-9.93,59.55-25.8,1.44-.58,2.63-1.14,3.47-1.66,9.68-6.03,16.76-20.05,16.76-20.05,0,0-1.27,2.5-8.54,5.79ZM220.32,183.32c-13.54,0-25.9-5.12-35.27-13.51.29,0,.58-.02.88-.02,18.28,0,39.25,7.8,48.42,11.62-4.47,1.23-9.17,1.9-14.03,1.9Z"/>
    <path class="st1" d="M73.7,53.71H22.54v158.39h30.97v-66.71h20.19c23.59,0,42.71-19.12,42.71-42.71v-6.25c0-23.59-19.12-42.71-42.71-42.71ZM87.64,102.67c0,7.69-6.25,13.94-13.94,13.94h-20.19v-34.13h20.19c7.68,0,13.94,6.25,13.94,13.94v6.25Z"/>
    <polygon class="st0" points="544.92 184.28 544.92 53.71 513.95 53.71 513.95 212.09 529.44 212.09 544.92 212.09 589.46 212.09 589.46 184.28 544.92 184.28"/>
    <path class="st4" d="M353.45,37.44c-1.22.72-2.34,1.61-3.53,2.38-5.23,3.39-17.13,10.79-23.32,9.51-1.03-.21-3.3-1.27-3.07-2.64.4-2.43,10.86-7.08,13.1-8.24.95-10.41,11.14-16.95,20.56-13.17,12.49,5.01,14.15,23.37,2.62,29.94-7.81,4.45-17.04,1.3-21.26-7.07-.04-.24,3.08-1.78,3.56-2.07,2.37-1.39,4.76-2.93,6.92-4.49,1.59-1.15,3.18-2.62,4.41-4.15Z"/>
  </g>
  <g>
    <g>
      <path class="st4" d="M102.21,277.74l-6.22-27.4-11.43,27.98h-1.79l-11.75-27.98-6.07,27.4h-6.79l9.79-42.66h3.25l12.47,31.13,11.5-31.13h3.21l10.61,42.66h-6.79Z"/>
      <path class="st4" d="M153.94,277.74l-3.61-9h-19.47l-3.86,9h-8l21.25-43.24h1.89l19.72,43.24h-7.93ZM140.87,245.68l-8.11,18.78h15.54l-7.43-18.78Z"/>
      <path class="st4" d="M178.13,277.74v-42.66h7.14v42.66h-7.14Z"/>
      <path class="st4" d="M225.82,240.32v37.42h-7.14v-37.42h-16.65v-5.24h41.18v5.24h-17.39Z"/>
      <path class="st4" d="M281.33,277.74l-3.61-9h-19.47l-3.86,9h-8l21.25-43.24h1.89l19.72,43.24h-7.93ZM268.26,245.68l-8.11,18.78h15.54l-7.43-18.78Z"/>
      <path class="st4" d="M338.1,278.32l-27.04-31.19v30.6h-6.79v-42.66h2.86l26.32,29.5v-29.5h6.79v43.24h-2.14Z"/>
      <path class="st4" d="M390.18,277.74l-3.61-9h-19.47l-3.86,9h-8l21.25-43.24h1.89l19.72,43.24h-7.93ZM377.11,245.68l-8.11,18.78h15.54l-7.43-18.78Z"/>
      <path class="st4" d="M446.95,278.32l-27.04-31.19v30.6h-6.79v-42.66h2.86l26.32,29.5v-29.5h6.79v43.24h-2.14Z"/>
      <path class="st4" d="M502.71,236.65l-2.39,4.98c-2.29-1.36-5.88-2.04-10.79-2.04-4.6,0-8.28,1.61-11.05,4.83-2.78,3.22-4.16,7.38-4.16,12.46s1.42,8.79,4.27,11.81c2.84,3.02,6.52,4.53,11.02,4.53,4.9,0,8.68-1.42,11.32-4.25l3.93,4.45c-4.14,3.36-9.48,5.04-16,5.04s-12.21-2.01-16.14-6.03c-3.93-4.02-5.89-9.32-5.89-15.9s2.1-11.66,6.29-15.87c4.19-4.21,9.61-6.32,16.25-6.32,5.69,0,10.14.77,13.36,2.3Z"/>
      <path class="st4" d="M529.72,240.32v11.85h17.29v4.95h-17.29v15.37h23.72v5.24h-30.86v-42.66h31.25v5.24h-24.11Z"/>
    </g>
    <g>
      <circle class="st4" cx="32.15" cy="256.27" r="9.39"/>
      <circle class="st4" cx="579.85" cy="256.27" r="9.39"/>
    </g>
  </g>
</svg>